<svg width="20" height="21" viewBox="0 0 20 21" fill="none" xmlns="http://www.w3.org/2000/svg">
<g id="Presente">
<path id="Union" fill-rule="evenodd" clip-rule="evenodd" d="M1.25581 5.15134H3.26655C2.95823 4.66892 2.79071 4.1047 2.79071 3.52322C2.79071 2.72142 3.10923 1.95244 3.6762 1.38548C4.24317 0.818513 5.01215 0.5 5.81397 0.5C7.82985 0.5 9.05886 1.94998 9.73923 3.187C9.8345 3.36021 9.92124 3.53294 10 3.702C10.0788 3.53294 10.1655 3.36021 10.2608 3.187C10.9412 1.94998 12.1702 0.5 14.186 0.5C14.9878 0.5 15.7568 0.818519 16.3238 1.38545C16.8907 1.9524 17.2093 2.72141 17.2093 3.52322C17.2093 4.10471 17.0418 4.66893 16.7335 5.15134H18.7442C19.4378 5.15134 20 5.71361 20 6.40714V9.94198C20 10.6356 19.4378 11.1978 18.7442 11.1978H18.1395V19.2437C18.1395 19.9373 17.5773 20.4995 16.8837 20.4995H10.0254C10.0205 20.4997 10.0156 20.4998 10.0107 20.4999C10.0071 20.5 10.0036 20.5 10 20.5C9.99151 20.5 9.98306 20.4998 9.97464 20.4995H3.11629C2.42274 20.4995 1.86047 19.9374 1.86047 19.2437V11.1978H1.25581C0.56227 11.1978 0 10.6356 0 9.94198V6.40714C0 5.71358 0.562248 5.15134 1.25581 5.15134ZM5.81397 1.89533C5.38222 1.89533 4.96815 2.06684 4.66286 2.37213C4.35757 2.67741 4.18606 3.09148 4.18606 3.52322C4.18606 3.95496 4.35757 4.36903 4.66286 4.67431C4.96815 4.9796 5.38222 5.15111 5.81397 5.15111H9.07906C8.95033 4.77253 8.7664 4.3136 8.51661 3.85944C7.91791 2.77091 7.0539 1.89533 5.81397 1.89533ZM10.6977 19.1042H16.7442V11.1978H10.6977V19.1042ZM9.30233 11.1978V19.1042H3.25582V11.1978H9.30233ZM10.6977 9.80245H17.4165C17.4249 9.80215 17.4334 9.802 17.4419 9.802C17.4503 9.802 17.4588 9.80215 17.4672 9.80245H18.6047V6.54668H10.6977V9.80245ZM9.30233 6.54668V9.80245H2.58349C2.57508 9.80215 2.56663 9.802 2.55815 9.802C2.54967 9.802 2.54122 9.80215 2.53281 9.80245H1.39535V6.54668H9.30233ZM14.186 5.15111H10.921C11.0497 4.77253 11.2336 4.3136 11.4834 3.85944C12.0821 2.77091 12.9461 1.89533 14.186 1.89533C14.6177 1.89533 15.0318 2.06684 15.3372 2.37216C15.6425 2.67745 15.814 3.0915 15.814 3.52322C15.814 3.95494 15.6425 4.36899 15.3372 4.67428C15.0318 4.9796 14.6177 5.15111 14.186 5.15111Z" fill="#222222"/>
</g>
</svg>
