<svg width="23" height="19" viewBox="0 0 23 19" fill="none" xmlns="http://www.w3.org/2000/svg">
<g id="Wishlist">
<path id="Vector" d="M11.5 18.5C11.3983 18.5 11.2983 18.4748 11.2096 18.4268C9.40337 17.4042 7.70816 16.2085 6.14959 14.8578C2.73253 11.8854 1 8.92305 1 6.05319C1.00035 4.86538 1.39462 3.70895 2.12495 2.75365C2.85527 1.79834 3.88318 1.09447 5.0578 0.745352C6.23242 0.396231 7.4919 0.420244 8.65136 0.813866C9.81083 1.20749 10.8092 1.94999 11.5 2.93239C12.1908 1.94999 13.1892 1.20749 14.3486 0.813866C15.5081 0.420244 16.7676 0.396231 17.9422 0.745352C19.1168 1.09447 20.1447 1.79834 20.8751 2.75365C21.6054 3.70895 21.9996 4.86538 22 6.05319C22 8.92305 20.2675 11.8854 16.8504 14.8578C15.2918 16.2085 13.5966 17.4042 11.7904 18.4268C11.7017 18.4748 11.6017 18.5 11.5 18.5ZM6.74528 1.64894C5.53722 1.65026 4.37902 2.1147 3.52479 2.94038C2.67056 3.76605 2.19005 4.88552 2.18868 6.05319C2.18868 11.5418 9.89391 16.3225 11.5 17.2589C13.1061 16.3225 20.8113 11.5418 20.8113 6.05319C20.8111 5.03522 20.4462 4.04874 19.7785 3.26146C19.1109 2.47418 18.1817 1.9347 17.149 1.73475C16.1164 1.5348 15.0439 1.68671 14.1141 2.16466C13.1842 2.64261 12.4543 3.4171 12.0484 4.35645C12.0032 4.461 11.927 4.5503 11.8294 4.61311C11.7319 4.67592 11.6172 4.70943 11.5 4.70943C11.3828 4.70943 11.2681 4.67592 11.1706 4.61311C11.073 4.5503 10.9968 4.461 10.9516 4.35645C10.6061 3.55363 10.0221 2.86788 9.27338 2.38593C8.52464 1.90399 7.64485 1.64751 6.74528 1.64894Z" fill="#222222" stroke="#222222" stroke-width="0.375"/>
</g>
</svg>
